<svg width="697" height="697" viewBox="0 0 697 697" fill="none" xmlns="http://www.w3.org/2000/svg">
<mask id="mask0" mask-type="alpha" maskUnits="userSpaceOnUse" x="0" y="0" width="697" height="697">
<rect width="58" height="58" rx="15" fill="#5200FF"/>
<rect y="284" width="58" height="58" rx="15" fill="#5200FF"/>
<rect y="142" width="58" height="58" rx="15" fill="#5200FF"/>
<rect y="426" width="58" height="58" rx="15" fill="#5200FF"/>
<rect y="568" width="58" height="58" rx="15" fill="#5200FF"/>
<rect y="71" width="58" height="58" rx="15" fill="#5200FF"/>
<rect y="355" width="58" height="58" rx="15" fill="#5200FF"/>
<rect y="213" width="58" height="58" rx="15" fill="#5200FF"/>
<rect y="497" width="58" height="58" rx="15" fill="#5200FF"/>
<rect y="639" width="58" height="58" rx="15" fill="#5200FF"/>
<rect x="284" width="58" height="58" rx="15" fill="#5200FF"/>
<rect x="284" y="284" width="58" height="58" rx="15" fill="#5200FF"/>
<rect x="284" y="142" width="58" height="58" rx="15" fill="#5200FF"/>
<rect x="284" y="426" width="58" height="58" rx="15" fill="#5200FF"/>
<rect x="284" y="568" width="58" height="58" rx="15" fill="#5200FF"/>
<rect x="284" y="71" width="58" height="58" rx="15" fill="#5200FF"/>
<rect x="284" y="355" width="58" height="58" rx="15" fill="#5200FF"/>
<rect x="284" y="213" width="58" height="58" rx="15" fill="#5200FF"/>
<rect x="284" y="497" width="58" height="58" rx="15" fill="#5200FF"/>
<rect x="284" y="639" width="58" height="58" rx="15" fill="#5200FF"/>
<rect x="142" width="58" height="58" rx="15" fill="#5200FF"/>
<rect x="142" y="284" width="58" height="58" rx="15" fill="#5200FF"/>
<rect x="142" y="142" width="58" height="58" rx="15" fill="#5200FF"/>
<rect x="142" y="426" width="58" height="58" rx="15" fill="#5200FF"/>
<rect x="142" y="568" width="58" height="58" rx="15" fill="#5200FF"/>
<rect x="142" y="71" width="58" height="58" rx="15" fill="#5200FF"/>
<rect x="142" y="355" width="58" height="58" rx="15" fill="#5200FF"/>
<rect x="142" y="213" width="58" height="58" rx="15" fill="#5200FF"/>
<rect x="142" y="497" width="58" height="58" rx="15" fill="#5200FF"/>
<rect x="142" y="639" width="58" height="58" rx="15" fill="#5200FF"/>
<rect x="426" width="58" height="58" rx="15" fill="#5200FF"/>
<rect x="426" y="284" width="58" height="58" rx="15" fill="#5200FF"/>
<rect x="426" y="142" width="58" height="58" rx="15" fill="#5200FF"/>
<rect x="426" y="426" width="58" height="58" rx="15" fill="#5200FF"/>
<rect x="426" y="568" width="58" height="58" rx="15" fill="#5200FF"/>
<rect x="426" y="71" width="58" height="58" rx="15" fill="#5200FF"/>
<rect x="426" y="355" width="58" height="58" rx="15" fill="#5200FF"/>
<rect x="426" y="213" width="58" height="58" rx="15" fill="#5200FF"/>
<rect x="426" y="497" width="58" height="58" rx="15" fill="#5200FF"/>
<rect x="426" y="639" width="58" height="58" rx="15" fill="#5200FF"/>
<rect x="568" width="58" height="58" rx="15" fill="#5200FF"/>
<rect x="568" y="284" width="58" height="58" rx="15" fill="#5200FF"/>
<rect x="568" y="142" width="58" height="58" rx="15" fill="#5200FF"/>
<rect x="568" y="426" width="58" height="58" rx="15" fill="#5200FF"/>
<rect x="568" y="568" width="58" height="58" rx="15" fill="#5200FF"/>
<rect x="568" y="71" width="58" height="58" rx="15" fill="#5200FF"/>
<rect x="568" y="355" width="58" height="58" rx="15" fill="#5200FF"/>
<rect x="568" y="213" width="58" height="58" rx="15" fill="#5200FF"/>
<rect x="568" y="497" width="58" height="58" rx="15" fill="#5200FF"/>
<rect x="568" y="639" width="58" height="58" rx="15" fill="#5200FF"/>
<rect x="71" width="58" height="58" rx="15" fill="#5200FF"/>
<rect x="71" y="284" width="58" height="58" rx="15" fill="#5200FF"/>
<rect x="71" y="142" width="58" height="58" rx="15" fill="#5200FF"/>
<rect x="71" y="426" width="58" height="58" rx="15" fill="#5200FF"/>
<rect x="71" y="568" width="58" height="58" rx="15" fill="#5200FF"/>
<rect x="71" y="71" width="58" height="58" rx="15" fill="#5200FF"/>
<rect x="71" y="355" width="58" height="58" rx="15" fill="#5200FF"/>
<rect x="71" y="213" width="58" height="58" rx="15" fill="#5200FF"/>
<rect x="71" y="497" width="58" height="58" rx="15" fill="#5200FF"/>
<rect x="71" y="639" width="58" height="58" rx="15" fill="#5200FF"/>
<rect x="355" width="58" height="58" rx="15" fill="#5200FF"/>
<rect x="355" y="284" width="58" height="58" rx="15" fill="#5200FF"/>
<rect x="355" y="142" width="58" height="58" rx="15" fill="#5200FF"/>
<rect x="355" y="426" width="58" height="58" rx="15" fill="#5200FF"/>
<rect x="355" y="568" width="58" height="58" rx="15" fill="#5200FF"/>
<rect x="355" y="71" width="58" height="58" rx="15" fill="#5200FF"/>
<rect x="355" y="355" width="58" height="58" rx="15" fill="#5200FF"/>
<rect x="355" y="213" width="58" height="58" rx="15" fill="#5200FF"/>
<rect x="355" y="497" width="58" height="58" rx="15" fill="#5200FF"/>
<rect x="355" y="639" width="58" height="58" rx="15" fill="#5200FF"/>
<rect x="213" width="58" height="58" rx="15" fill="#5200FF"/>
<rect x="213" y="284" width="58" height="58" rx="15" fill="#5200FF"/>
<rect x="213" y="142" width="58" height="58" rx="15" fill="#5200FF"/>
<rect x="213" y="426" width="58" height="58" rx="15" fill="#5200FF"/>
<rect x="213" y="568" width="58" height="58" rx="15" fill="#5200FF"/>
<rect x="213" y="71" width="58" height="58" rx="15" fill="#5200FF"/>
<rect x="213" y="355" width="58" height="58" rx="15" fill="#5200FF"/>
<rect x="213" y="213" width="58" height="58" rx="15" fill="#5200FF"/>
<rect x="213" y="497" width="58" height="58" rx="15" fill="#5200FF"/>
<rect x="213" y="639" width="58" height="58" rx="15" fill="#5200FF"/>
<rect x="497" width="58" height="58" rx="15" fill="#5200FF"/>
<rect x="497" y="284" width="58" height="58" rx="15" fill="#5200FF"/>
<rect x="497" y="142" width="58" height="58" rx="15" fill="#5200FF"/>
<rect x="497" y="426" width="58" height="58" rx="15" fill="#5200FF"/>
<rect x="497" y="568" width="58" height="58" rx="15" fill="#5200FF"/>
<rect x="497" y="71" width="58" height="58" rx="15" fill="#5200FF"/>
<rect x="497" y="355" width="58" height="58" rx="15" fill="#5200FF"/>
<rect x="497" y="213" width="58" height="58" rx="15" fill="#5200FF"/>
<rect x="497" y="497" width="58" height="58" rx="15" fill="#5200FF"/>
<rect x="497" y="639" width="58" height="58" rx="15" fill="#5200FF"/>
<rect x="639" width="58" height="58" rx="15" fill="#5200FF"/>
<rect x="639" y="284" width="58" height="58" rx="15" fill="#5200FF"/>
<rect x="639" y="142" width="58" height="58" rx="15" fill="#5200FF"/>
<rect x="639" y="426" width="58" height="58" rx="15" fill="#5200FF"/>
<rect x="639" y="568" width="58" height="58" rx="15" fill="#5200FF"/>
<rect x="639" y="71" width="58" height="58" rx="15" fill="#5200FF"/>
<rect x="639" y="355" width="58" height="58" rx="15" fill="#5200FF"/>
<rect x="639" y="213" width="58" height="58" rx="15" fill="#5200FF"/>
<rect x="639" y="497" width="58" height="58" rx="15" fill="#5200FF"/>
<rect x="639" y="639" width="58" height="58" rx="15" fill="#5200FF"/>
</mask>
<g mask="url(#mask0)">
<rect width="697" height="697" fill="url(#paint0_linear)"/>
</g>
<defs>
<linearGradient id="paint0_linear" x1="27.0634" y1="40.5562" x2="667.026" y2="679.18" gradientUnits="userSpaceOnUse">
<stop stop-color="#FFE601"/>
<stop offset="0.239583" stop-color="#01FF2A"/>
<stop offset="0.541667" stop-color="#2400FF"/>
<stop offset="0.770833" stop-color="#FF00C7"/>
<stop offset="0.994792" stop-color="#FF0000"/>
</linearGradient>
</defs>
</svg>
